<?xml version="1.0" encoding="UTF-8"?>
<svg id="Layer_1" data-name="Layer 1" xmlns="http://www.w3.org/2000/svg" viewBox="0 0 536.43 303.96">
  <defs>
    <style>
      .cls-1, .cls-2 {
        fill: #003287;
      }

      .cls-3, .cls-2 {
        opacity: .99;
      }
    </style>
  </defs>
  <g>
    <path class="cls-2" d="M167.12,194.15c-.59,0-1.15-.01-1.69-.03-.01,0-.02,0-.04,0,.09-.06.17-.11.24-.16h.35s.3-.06.3-.06l.05-.31c1.24-.63,2.53-1.14,3.83-1.54.9-.27,1.84-.41,2.81-.41.55,0,1.1.04,1.54.09.19.09.43.23.63.4.23.19.39.38.45.46,0,0,0,0,0,0-.01,0,.02.12,0,.18-.05.11-.3.31-.82.5-1.2.42-2.68.69-4.42.79-1.14.07-2.21.1-3.22.1Z"/>
    <g>
      <g class="cls-3">
        <path class="cls-1" d="M58.92,281.06c-2.18,0-4.08,1.46-4.65,3.57-.68,2.54-1.36,5.08-2.05,7.63-.71,2.63.78,5.53,3.45,6.11,2.52.55,4.91-.95,5.59-3.31.75-2.62,1.51-5.24,2.27-7.86.89-3.07-1.42-6.14-4.62-6.14Z"/>
      </g>
      <path class="cls-2" d="M268.12,76.69c-1.66-9.93-6.17-19.08-13.55-27.44-3.32-3.85-6.92-7.37-10.79-10.55-15.76-12.75-32.7-21.71-50.8-26.87-18.1-5.17-36.43-7.18-55-6.05-18.57,1.13-36.49,4.71-53.76,10.73-17.27,6.02-32.97,13.79-47.1,23.32-9.13,6.02-16.92,13.57-23.38,22.67-1.86,2.41-3.16,5.12-3.9,8.12-.54,2.27.17,4.09,2.12,5.46.93.62,1.94,1.09,3.04,1.39.81.37,1.58.44,2.3.23.72-.21,1.26-.77,1.6-1.68,1.53-3.69,3.47-6.97,5.82-9.84,2.35-2.87,4.89-5.59,7.62-8.17,4.09-4.17,8.54-7.85,13.36-11.05,12.75-9.68,27.09-17.64,43-23.87,15.91-6.24,32.59-10.03,50.03-11.39,17.44-1.35,34.7.45,51.78,5.4,17.08,4.95,33.07,13.82,47.96,26.6,4.09,3.38,7.68,7.35,10.76,11.91,6.44,9.75,8.92,20.16,7.45,31.23-1.1,7.24-3.42,13.78-6.96,19.62-5.4,8.88-12.17,16.38-20.32,22.49-7.49,5.74-15.44,10.65-23.82,14.73-8.38,4.08-16.98,7.66-25.8,10.74-12.84,4.57-25.87,8.6-39.07,12.06-13.2,3.47-26.44,6.68-39.7,9.63l-.19-.05c-.74.21-1.48.37-2.19.49-2.2.17-3.1-.79-2.7-2.88.48-2.06,1.02-4.18,1.62-6.34.02-.09.05-.17.07-.25,3.48-12.85,6.99-25.67,10.54-38.45,3.59-12.91,7.12-25.88,10.6-38.92.15-.55.31-1.1.46-1.66.44-1.57.89-3.21,1.36-4.9.69-2.83-.43-4.86-3.39-6.09-3.05-1.35-5.1-.75-6.13,1.8-.65,2.02-1.28,4.11-1.88,6.27-.11.38-.2.7-.27.96-1.62,5.82-3.23,11.62-4.83,17.39-6.68,23.72-13.28,47.46-19.79,71.22-.59,2.13-1.4,3.85-2.44,5.19-1.04,1.34-2.55,2.23-4.55,2.68-3.39.84-6.36,2.47-8.9,4.87-3.48,3.47-3.43,7.26.14,11.36,1.23,1.35,2.55,2.58,3.98,3.71.23.16.44.31.63.45,1.78,1.5,2.32,3.32,1.64,5.46-.42,1.16-.75,2.38-1.01,3.63-.21.76-.41,1.47-.58,2.1-4.05,14.57-7.95,28.92-11.69,43.07-.44,1.68-.89,3.38-1.33,5.07-.8,3.05,1.5,6.03,4.65,6.03h.52c2.14,0,4.03-1.42,4.62-3.48,4.17-14.45,8.33-28.9,12.51-43.32.22-.8.45-1.63.69-2.49.45-1.61.94-3.24,1.49-4.87.67-2.42,2.07-3.08,4.19-1.99,5,2.25,9.87,4.66,14.6,7.21,3.24,1.68,6.44,3.32,9.61,4.94,14.89,7.66,29.77,15.36,44.64,23.11,9.25,4.76,18.56,9.27,27.95,13.52,5.64,2.58,11.25,5.19,16.83,7.84,1.33.64,2.67,1.11,4.01,1.39.38.11.75.14,1.1.1.35-.04.66-.35.91-.92.3-.6.34-1.16.12-1.68-.22-.52-.53-.97-.93-1.35-1.38-1.12-2.85-2.03-4.39-2.73-1.99-1.06-4.01-2.12-6.04-3.19-1.79-.82-3.59-1.73-5.42-2.74-6.59-3.43-13.15-6.86-19.66-10.26-10.7-5.63-21.44-11.19-32.21-16.7-9.77-5-19.5-10.01-29.17-15.04-5.83-2.9-11.64-5.86-17.43-8.89-1.32-.68-2.57-1.45-3.76-2.28-1.1-.81-1.53-1.82-1.29-3.03.43-2.54.98-4.93,1.66-7.19.67-2.26,1.76-4.12,3.27-5.58,1.5-1.45,20.74-5.67,26.23-6.99,12.62-2.94,25.11-6.06,37.46-9.35,9.48-2.49,18.83-5.33,28.06-8.5,9.23-3.18,18.29-6.85,27.18-11.02,10.76-4.97,20.79-11.19,30.1-18.67,9.37-7.55,16.7-17.04,21.98-28.48,4.21-9.4,5.49-19.06,3.83-28.99Z"/>
    </g>
    <g class="cls-3">
      <path class="cls-1" d="M202.96,209.69c-.12.06-.23.1-.36.16-3.48,1.54-7.37,3.14-11.66,4.81-4.3,1.66-8.64,3.03-13.03,4.11-4.39,1.07-8.45,1.5-12.18,1.26-3.73-.23-6.73-1.56-9.01-3.99-3.64-4.05-4.73-8.75-3.28-14.11.42-1.98,1.1-3.33,2.03-4.05.93-.71,2.39-.92,4.4-.62,4.17.43,8.36.59,12.56.5,3.73.06,7.18-.96,10.33-3.03,1.56-1.24,2.38-2.66,2.46-4.25.08-1.59-.56-3.09-1.91-4.49-1.51-1.29-3.24-2.23-5.2-2.83-4.3-1.38-8.72-1.92-13.26-1.61-5.48.58-10.22,2.5-14.24,5.77-4.02,3.26-6.79,7.55-8.33,12.85-1.87,6.68-.59,12.74,3.82,18.2,2.91,3.54,6.36,5.9,10.36,7.06,3.99,1.16,8.15,1.55,12.46,1.15,4.31-.39,8.47-1.16,12.47-2.32,5.11-1.43,10.17-3.38,15.19-5.83,2.26-1.1,4.37-2.3,6.39-3.57v-5.16ZM160.87,191.15c.27-.21.57-.41.89-.61.32-.2.58-.37.78-.52.13.02.2-.02.22-.1,1.45-.77,2.94-1.39,4.48-1.85,1.54-.47,3.18-.57,4.92-.32.38.15.72.34,1.02.58.3.25.54.51.72.81.35.94-.12,1.64-1.41,2.1-1.29.46-2.86.74-4.7.85-1.84.11-3.52.13-5.02.07-1.51-.06-2.28-.25-2.32-.58.01-.09.16-.23.43-.43Z"/>
    </g>
    <path class="cls-2" d="M296.57,189.24c-.31-1.25-1.3-5.9-2.02-7.11h-.4c-.34,2.33,6.17,27.21-10.72,36.57-1.85,1.03-3.46.03-4.43-2.11-.97-2.14-1.17-6.36-.6-12.66l.33-1.72c.18-1.85.31-3.66.4-5.42.22-1.72.33-3.43.33-5.13s-.24-3.38-.73-5.05c-1.19-3.31-3.53-5.14-7.01-5.49-4.06-.4-7.78.62-11.17,3.04-3.7,2.69-6.81,5.98-9.32,9.85-1.45,2.16-2.5,3.53-3.14,4.1-.64.57-1.05.59-1.22.06-.18-.53-.27-1.52-.27-2.97,0-.97-.11-2.14-.33-3.51,0-.26-.04-.55-.13-.86,0-.57-.05-1.14-.13-1.72-.22-1.68-.76-2.78-1.62-3.31-.86-.53-1.77-.79-2.74-.79-1.28,0-2.4.2-3.37.6-.75.49-1.4,1.28-1.95,2.38-.55,1.1-1.44,2.78-2.68,5.02-3.79,6.97-7.67,12.95-11.64,17.95-3.97,5.01-7.44,6.9-10.41,5.69-2.97-1.21-4.4-5.02-4.26-11.41.09-1.45.13-2.91.13-4.36l.26-5.56c0-.57.04-1.19.13-1.85.13-1.28.2-2.56.2-3.84-.4-3.97-2.69-5.42-6.88-4.36-1.45.49-2.52,1.92-3.21,4.3-.68,2.38-1.11,5.05-1.29,8-.18,2.96-.27,5.56-.27,7.8v2.18c-.22,2.11.01,4.26.7,6.45.68,2.18,1.75,4.11,3.21,5.78,3.79,3.79,7.79,5.47,12,5.03,4.21-.44,8.01-2.5,11.41-6.18,3.39-3.68,7.27-9.23,11.64-16.63.7-1.06,1.3-2.07,1.78-3.04.17,6.21.31,12.43.4,18.64.09.66.13,1.39.13,2.18,0,1.24.07,2.54.2,3.9.26,1.76,1.28,2.84,3.04,3.24,3.17.75,5.4-.53,6.68-3.83.49-1.15.93-2.29,1.32-3.44.26-.89.55-1.72.86-2.52.79-2.51,2.08-5.8,3.87-9.88,1.79-4.07,3.79-7.98,6.02-11.7,2.23-3.72,4.51-6.22,6.84-7.5.97-.4,1.58.06,1.82,1.39.24,1.32.32,3,.23,5.02-.09,2.03-.25,3.99-.5,5.89-.24,1.9-.43,3.33-.56,4.3-.09.39-.13.64-.13.72-.57,5.73-.15,10.48,1.26,14.25,1.41,3.77,3.76,6.05,7.04,6.84,3.28.79,6.82-.32,10.61-3.34,3.79-3.02,6.98-7.32,9.55-12.89,2.58-5.58,1.14-19.41.74-21Z"/>
    <path class="cls-1" d="M441.94,189.67c-.6-1.03-1.29-1.99-2.09-2.83-1.19-1.3-2.6-2.37-4.23-3.22-2.7-1.39-5.84-2.1-9.31-2.1-4.81,0-9.22,1.22-13.13,3.62-3.92,2.4-7.01,5.72-9.2,9.84-2.2,4.12-3.3,8.67-3.3,13.53,0,2.22.29,4.26.87,6.11.77,2.59,2.13,4.81,4.02,6.62,3.25,3.12,7.61,4.69,13,4.69,4.81,0,9.21-1.22,13.1-3.62,3.88-2.4,6.96-5.72,9.18-9.84,2.23-4.12,3.35-8.67,3.35-13.53,0-3.55-.76-6.66-2.26-9.27ZM437.88,210.92c-1.83,3.6-4.4,6.54-7.67,8.71-3.28,2.19-7.02,3.29-11.17,3.29s-7.81-1.27-10.6-3.76c-2.79-2.5-4.2-6.16-4.2-10.9,0-4.19.92-8.15,2.72-11.78,1.8-3.63,4.36-6.58,7.59-8.75,3.25-2.17,7.01-3.29,11.2-3.29s7.82,1.27,10.64,3.78c2.82,2.49,4.25,6.15,4.25,10.88,0,4.25-.93,8.22-2.76,11.83Z"/>
    <path class="cls-1" d="M464.68,225.55c-5.18,0-9.36-1.53-12.42-4.55-3.07-3.01-4.62-7.17-4.62-12.34,0-1.56.16-3.23.47-4.95.78-4.39,2.36-8.28,4.67-11.56,2.31-3.27,5.22-5.83,8.66-7.6,3.44-1.77,7.18-2.67,11.13-2.67,4.29,0,7.87,1.08,10.63,3.22,2.8,2.18,3.56,3.18,5.41,7.12l.57,1.23,4.73-26.73h2.5l-10.3,58.18h-2.5l1.79-10.01h0c-1.52,2.42-7.99,10.65-20.73,10.65ZM472.36,184.15c-3.59,0-6.94.78-9.95,2.32-3.02,1.54-5.59,3.8-7.63,6.72-2.03,2.91-3.42,6.4-4.13,10.38-.27,1.77-.41,3.3-.41,4.54,0,4.72,1.38,8.47,4.11,11.12,2.72,2.65,6.48,3.99,11.18,3.99,3.43,0,6.72-.81,9.8-2.4,3.07-1.59,5.69-3.89,7.78-6.83,2.09-2.94,3.5-6.39,4.21-10.26.27-1.62.41-3.07.41-4.3,0-4.62-1.42-8.36-4.22-11.12-2.8-2.75-6.55-4.15-11.14-4.15Z"/>
    <path class="cls-1" d="M523.13,185.06c-2.53-1.95-5.58-2.9-9.31-2.9-2.73,0-5.25.47-7.49,1.41-2.19.92-3.92,2.23-5.15,3.88-1.19,1.6-1.83,3.58-1.83,5.74s.52,3.92,1.55,5.27c1.05,1.4,2.38,2.52,3.93,3.31,1.65.83,3.8,1.71,6.4,2.59,2.45.87,4.3,1.61,5.67,2.27,1.43.69,2.65,1.62,3.63,2.77,1.03,1.22,1.56,2.74,1.56,4.54,0,2.93-1.24,5.34-3.69,7.18-2.37,1.78-5.58,2.68-9.52,2.68s-7.21-.93-9.2-2.69c-1.8-1.6-2.71-3.76-2.71-6.42v-.15h-1.65v.15c-.06,3.23,1.05,5.85,3.2,7.58,2.47,2,5.87,3.01,10.12,3.01,4.58,0,8.34-1.05,11.19-3.11,2.72-1.97,4.16-4.85,4.16-8.31,0-2.04-.5-3.71-1.5-4.98-1.04-1.33-2.29-2.38-3.74-3.12-1.52-.77-3.62-1.62-6.24-2.51-2.41-.85-4.35-1.63-5.78-2.3-1.52-.72-2.81-1.71-3.84-2.93-1.09-1.3-1.63-2.94-1.63-4.9,0-2.93,1.2-5.29,3.58-7.03,2.29-1.66,5.21-2.51,8.68-2.51s6.33.9,8.46,2.53c2.26,1.73,3.4,4.03,3.4,6.85v.43s1.42,0,1.42,0v-.15c0-.24.01-.52.01-.75,0-3.05-1.23-5.55-3.66-7.42Z"/>
    <path class="cls-1" d="M340.84,206.47l-5.03,9.38-6.25-35.37h-5.72l-18.81,35.31-4.36-35.31h-6.86l6.32,46.4h5.69l19.02-35.4,6.46,35.4h5.66l9.11-19.93c.03-.06.06-.11.09-.17.03-.05.06-.11.09-.16l.08-.16h-5.49Z"/>
    <path class="cls-1" d="M395.81,189.35c-1.6-2.72-3.82-4.82-6.59-6.25-.98-.52-1.98-.93-3.06-1.25l-.11-.07-.19-.04c-.42-.11-.84-.21-1.35-.31l-.21-.04c-.37-.07-.76-.14-1.14-.2l-.44-.06c-.47-.06-.94-.11-1.45-.14h-.12s-2.74,0-2.74,0c-.12,0-.31,0-.36-.02l-.08.07h-.11c-15.17.75-28.25,9.26-36.16,23.97l-.85,1.68,5.2.09c.04-.07.28-.71.31-.79,6.29-12.13,19.95-20.9,32.97-20.9.28,0,.55,0,.8.01,1.44.07,2.83.31,4.11.71.51.14.91.29,1.3.48,1.28.52,2.54,1.32,3.76,2.39,2.72,2.4,4.05,5.81,4.05,10.41,0,4.13-.91,8.02-2.7,11.55-1.8,3.58-4.24,6.35-7.47,8.47-3.18,2.12-6.82,3.2-10.81,3.2s-7.49-1.22-10.17-3.62c-2.66-2.35-4-5.85-4-10.41,0-3.76.75-7.32,2.22-10.59-1.92,1.03-7.03,4.39-7.04,10.82-.01,5.48,1.69,9.92,5.07,13.17,3.39,3.23,7.91,4.87,13.44,4.87,4.93,0,9.45-1.25,13.43-3.72,3.99-2.44,7.16-5.83,9.42-10.08,2.26-4.19,3.4-8.84,3.4-13.81,0-3.7-.76-6.84-2.33-9.6Z"/>
    <g class="cls-3">
      <path class="cls-1" d="M205.68,178.42c.57.26,1.27.33,2.08.2.82-.13,1.51-.44,2.08-.92,1.67-1.45,2.84-3.26,3.51-5.43.31-.88.2-1.65-.33-2.31-.53-.66-1.28-1.06-2.25-1.19-2.82-.18-4.67.79-5.55,2.9-.31.8-.73,2.73-.73,2.91,0,.89.08,1.65.23,2.28.15.64.47,1.15.96,1.55Z"/>
    </g>
  </g>
  <g>
    <path class="cls-1" d="M236.73,270.35l-4.98-8.79h-2.13v8.79h-4.53v-22.56h8.47c1.75,0,3.23.31,4.46.92,1.23.61,2.15,1.44,2.76,2.49.61,1.05.92,2.21.92,3.51,0,1.49-.43,2.83-1.29,4.02-.86,1.2-2.14,2.02-3.85,2.47l5.4,9.15h-5.24ZM229.62,258.17h3.78c1.23,0,2.14-.3,2.75-.89s.91-1.42.91-2.47-.3-1.84-.91-2.41c-.6-.57-1.52-.86-2.75-.86h-3.78v6.63Z"/>
    <path class="cls-1" d="M253.58,251.44v5.66h7.6v3.59h-7.6v5.98h8.56v3.69h-13.09v-22.59h13.09v3.68h-8.56Z"/>
    <path class="cls-1" d="M283.31,266.05h-8.99l-1.49,4.3h-4.75l8.11-22.59h5.27l8.11,22.59h-4.78l-1.49-4.3ZM282.09,262.43l-3.26-9.44-3.26,9.44h6.53Z"/>
    <path class="cls-1" d="M300.38,266.76h7.43v3.59h-11.96v-22.56h4.53v18.97Z"/>
    <path class="cls-1" d="M329.38,251.44v5.66h7.6v3.59h-7.6v5.98h8.56v3.69h-13.09v-22.59h13.09v3.68h-8.56Z"/>
    <path class="cls-1" d="M348.82,269.77c-1.26-.54-2.26-1.32-2.99-2.33-.73-1.01-1.11-2.21-1.13-3.59h4.85c.06.93.39,1.66.98,2.2.59.54,1.41.81,2.44.81s1.89-.25,2.49-.76.91-1.17.91-1.99c0-.67-.21-1.22-.61-1.65-.41-.43-.92-.77-1.54-1.02-.61-.25-1.46-.52-2.54-.82-1.47-.43-2.66-.86-3.57-1.28-.92-.42-1.7-1.06-2.36-1.91-.66-.85-.99-1.99-.99-3.41,0-1.34.33-2.5,1-3.49.67-.99,1.61-1.75,2.81-2.28,1.21-.53,2.59-.79,4.14-.79,2.33,0,4.22.57,5.67,1.7,1.46,1.13,2.26,2.71,2.41,4.73h-4.98c-.04-.78-.37-1.42-.99-1.92s-1.43-.76-2.44-.76c-.88,0-1.59.23-2.12.68-.53.45-.79,1.11-.79,1.97,0,.61.2,1.11.6,1.5s.89.72,1.49.97c.59.25,1.43.53,2.51.86,1.47.43,2.66.86,3.59,1.29.92.43,1.72,1.08,2.39,1.94.67.86,1,1.99,1,3.39,0,1.21-.31,2.33-.94,3.36-.63,1.04-1.54,1.86-2.75,2.47-1.21.61-2.64.92-4.3.92s-2.99-.27-4.25-.81Z"/>
    <path class="cls-1" d="M383.55,247.79v3.65h-6.01v18.91h-4.53v-18.91h-6.01v-3.65h16.55Z"/>
    <path class="cls-1" d="M403.92,266.05h-8.99l-1.49,4.3h-4.75l8.11-22.59h5.27l8.11,22.59h-4.78l-1.49-4.3ZM402.69,262.43l-3.26-9.44-3.26,9.44h6.53Z"/>
    <path class="cls-1" d="M431.81,247.79v3.65h-6.01v18.91h-4.53v-18.91h-6.01v-3.65h16.55Z"/>
    <path class="cls-1" d="M442.87,251.44v5.66h7.6v3.59h-7.6v5.98h8.56v3.69h-13.09v-22.59h13.09v3.68h-8.56Z"/>
    <path class="cls-1" d="M474.22,266.76h7.43v3.59h-11.96v-22.56h4.53v18.97Z"/>
    <path class="cls-1" d="M492.29,266.76h7.43v3.59h-11.96v-22.56h4.53v18.97Z"/>
    <path class="cls-1" d="M506.24,253.07c1-1.76,2.37-3.12,4.11-4.1,1.73-.98,3.68-1.47,5.83-1.47,2.52,0,4.73.64,6.63,1.94,1.9,1.29,3.22,3.08,3.97,5.37h-5.2c-.52-1.08-1.24-1.88-2.18-2.42-.94-.54-2.02-.81-3.25-.81-1.32,0-2.48.31-3.51.92-1.02.61-1.82,1.48-2.39,2.6-.57,1.12-.86,2.44-.86,3.94s.29,2.8.86,3.93c.57,1.13,1.37,2.01,2.39,2.62,1.02.61,2.19.92,3.51.92,1.23,0,2.31-.27,3.25-.83.94-.55,1.66-1.36,2.18-2.44h5.2c-.75,2.31-2.07,4.1-3.96,5.38-1.88,1.28-4.1,1.92-6.64,1.92-2.16,0-4.1-.49-5.83-1.47-1.74-.98-3.1-2.34-4.11-4.09-1-1.75-1.5-3.73-1.5-5.95s.5-4.21,1.5-5.96Z"/>
  </g>
</svg>